<svg xmlns="http://www.w3.org/2000/svg" viewBox="0 0 50 50">
  <path d="M33.3861389 24.0531197c.8493462-1.6463108 1.700779-3.2914371 2.562851-4.930788.9174461-1.7448425 1.8409386-3.4860325 2.769619-5.224823 1.0104828-1.8932514 2.0240288-3.7834415 3.0752373-5.6541901.4771233-.8486834.9712868-1.6876626 1.4575195-2.5311985.2210655-.3825521.443943-.7653837.6534615-1.1549268.1724434-.3195996.3524323-.6370778.5075188-.965477.0611458-.1289318.1219406-.2575858.1830826-.3865175.0452881-.0954731.0708504-.2055538.0936317-.3080177.0325546-.1468787.0517197-.2970965.0583954-.4473143.0179482-.3928826-.2240906-.7742178-.4661636-1.0573325-.2922249-.342068-.7325516-.5990276-1.1807709-.6592329-.073597-.0118603-.1459732-.0179468-.217411-.0179468-.2000961 0-.392292.0468148-.5771484.1407921-.1170731.0665702-.2131729.1495917-.287674.2493427-.0368004.0450062-.0666046.0945686-.092762.1462526-.0367966.0553709-.0729675.11102-.108551.1669474-.0137024.0170425-.0276833.0334589-.0422554.0498754-.0812149.0918558-.167263.1782162-.2530289.265794-.1748428.1778684-.3575821.3487806-.5370178.5220926-.3278046.3159478-.6638184.6233742-.9888802.9417565-.3773689.3691621-.7514038.7392633-1.1202545 1.1172247-.3694725.3782749-.7273674.7666011-1.0865135 1.1549273-.6826706.7371073-1.3273315 1.5091686-1.975647 2.276082-.6315804.7471581-1.2482758 1.5067682-1.8716507 2.2605705-1.2637901 1.5292711-2.5525188 3.0375357-3.8600979 4.5293827-.7121696.8128242-1.439537 1.6089544-2.1702805 2.4053278-.2581406.2809925-.5257435.5500908-.7939739.8207531-.2903118.2927151-.5769062.5896721-.869133.880579-.163435.1454868-.3266602.2912521-.4936428.4327393-.2890625.2448578-.5897732.483139-.8970623.7047272-.097456.0702572-.196928.1370354-.297966.201519-.2463875.130394-.4963551.26301-.7531395.3700333-.2441273.1017303-.4995556.1735897-.7554722.2399139-.041111.0061569-.0822906.011549-.1236115.016243-.0692825-.2666969-.1155758-.5389938-.1465645-.8130322-.0107822-.2416229-.0112343-.4831734-.0006962-.7256641.0137386-.3192177.0582218-.6369743.1042385-.9528866.0826035-.566124.1936588-1.1276245.327425-1.6836624.4063072-1.5216198.9320526-3.009572 1.4221458-4.5054541.256197-.7820778.5273457-1.5626955.8543186-2.3181667.3237038-.7480278.6886215-1.4754658 1.0380287-2.2115293.1841984-.3881869.3659973-.7774177.5596581-1.1600747.1577969-.2682977.3186588-.5349965.4763546-.8029814.0115814-.0194774.0231285-.0389199.0349884-.0583968.2345257-.3320165.4711399-.6625714.7088299-.9924316.0357895-.0404501.0715103-.080935.1077175-.121315.0682735-.0636487.1136284-.1381836.1399231-.2218313.0217705-.0299459.0431957-.0600314.0649681-.0899777.0741882-.1021507.1483765-.2040231.2219715-.3065219.0386066-.0541189.0775604-.107646.1161671-.1620779.1118889-.158426.1985626-.3235297.2828007-.4993114.0507812-.1848593.0480347-.3691621-.0082073-.5528388-.0632668-.2067711-.1672611-.3913522-.3117046-.5531172-.173624-.1955369-.3807087-.3454416-.6218433-.4497489-.1243744-.0352676-.2490654-.0705352-.3734398-.1058028-.2350483-.0383284-.4579563-.003965-.6698761.1036812-.1751556.1322709-.2970963.2481253-.4147949.4202549-.0249367.0370761-.0507793.0735959-.0760307.1103591-.0534916.0769348-.1094532.1532784-.1626682.2311175-.0364857.0450063-.0729713.0903254-.108551.1356099-.1532784.1955369-.3038082.3928826-.4543056.5902629-.2773418.3630755-.5482807.7313333-.8137627 1.102617-.5975323.8356056-1.1795521 1.6812978-1.76157 2.5278592-1.147625 1.6697507-2.2730579 3.3543878-3.4048557 5.034781-1.1436939 1.6977148-2.294342 3.390873-3.4395313 5.0867796-1.1141634 1.6493683-2.2116337 3.3099728-3.3151541 4.9663315-1.1114521 1.6682205-2.2499266 3.3188057-3.3753605 4.977602-.2241268.3308678-.4558353.6565552-.6847963.9840488-.2764378.3955975-.5443172.7982178-.8301802 1.1871338-.3505898.4771214-.7012134.9539318-1.0518374 1.4310513-.2815843.3831444-.5877934.7489681-.8827682 1.1220932-.1885114.2380753-.3864832.4755917-.5996537.6954403-.1486874.1116142-.4805994.3910408-.5811157.6638222-.0647612.2365837-.0611095.4719429.0106435.7067108.001843.0063667.0039649.0127678.0060863.0185394.2067709.6160355.8478484 1.4708061 2.1469064 1.4319878.0090084-.0002785.016521-.0038948.0251818-.0056686.0608659-.009079.1218014-.019371.1800594-.035408.0748134-.0203781.1484089-.0495605.2195702-.0793686.1340795-.0562744.2651334-.1195068.3767447-.2147026.0501881-.0428467.8249626-.8754616.9840145-1.0755539.1909456-.2393265.3816137-.4780273.5725946-.7173538.2964697-.3715935.5713768-.7562714.8502131-1.1415348.2441959-.3375473.4895725-.6729374.7228117-1.0174751.3679447-.5434132.7352982-1.0871048 1.102931-1.6308308.5552731-.820406 1.0813313-1.6618195 1.6201878-2.4934959.4649477-.7173519.9195309-1.4420071 1.3741493-2.1663132 1.1062689-1.7612953 2.2043295-3.5274563 3.3042002-5.2929592.596941-.9575806 1.2014637-1.9102955 1.8065758-2.8626938-.0769348.3202267-.1465645.6422272-.2186298.9642601-.110672.4950676-.1933823.993475-.2797413 1.4933796-.0450058.2599831-.0742226.5218124-.106741.7836418-.0459099.3694401-.0939789.7380104-.1207237 1.1096077-.0541191.7517147-.0197563 1.5706272.4062366 2.2210579.1693821.2581787.3591461.4649506.6048374.6543999.1925106.1486874.4187241.2691326.6452847.3582077.4859219.190979 1.0098228.1900406 1.5219688.1191921.7655582-.1059074 2.1100388-.8093109 3.0601082-1.6023464.2967491-.2367172.5857067-.4835205.8708038-.7312298.3962212-.3448143.7958145-.6960297 1.1628571-1.0719051.1867008-.1918488.3739967-.3831444.5610123-.5747147.2469425-.2529945.4941635-.505991.7410698-.7592983.1006565-.1030884.2064934-.2031193.3022804-.3104858.3959084-.443037.7918167-.8857937 1.1877594-1.3288651.6577377-.7352638 1.2890072-1.492753 1.9266758-2.2447453 1.1120415-1.3106403 2.1952171-2.6464968 3.2826347-3.9777613-.1328964.2526808-.2660713.5053625-.3995628.7577658-.9283981 1.7576418-1.8382263 3.525301-2.7480507 5.2923317-.8988724 1.7460594-1.7831726 3.4991436-2.6680622 5.2521954-.3496838.6924152-.6994038 1.3851395-1.0494022 2.0778313-.9934406 1.9562054-1.9814205 3.9148464-2.963316 5.8767872-.4409485.8809605-.8730621 1.7664394-1.3084812 2.6504269-.3999081.8119202-.8019047 1.6256485-1.1808052 2.4473076-.4196281.9095154-.8453445 1.8151016-1.2537384 2.7294846-.3953171.8857956-.7854519 1.7734337-1.1625099 2.6668434-.3956299.936573-.7863922 1.8743668-1.1762123 2.8130951-.1788082.4302711-.3579273.8602638-.5385437 1.2899437-.3059311.7282715-.7508106 1.5097961-.4396973 2.3210907.0671959.1596451.1347046.3186951.2019024.4780235.1933784.3372345.4460945.6224709.7574863.8553963.3694401.2812729.7823925.4585495 1.2397575.5321465.3953171.0644836.7708435.0063972 1.1269283-.1739388.0164165-.0130768.0328674-.0261536.0492859-.0392342.3107643-.1769638.5187531-.4339256.6242771-.7711563.0261536-.0620155.0541191-.1231575.0823956-.1842651.0237217-.0516853.0316505-.1182899.0462227-.1727257.0346756-.1289291.0635796-.2587662.0942917-.3883247.0498753-.2119522.0997162-.4235916.152338-.6349182.1207256-.4823074 1.1746235-4.4083252 1.8402824-6.0860977 2.4735621-6.2345548 7.0173834-15.0220895 7.9111746-16.7554173z"/>
</svg>
